<svg id="Bold" enable-background="new 0 0 24 24" height="512" viewBox="0 0 24 24" width="512" xmlns="http://www.w3.org/2000/svg"><g><path d="m18.328 7.188c-.054-.119-.054-.256 0-.375l.496-1.093c.223-.491.233-1.059.026-1.557-.206-.498-.614-.893-1.119-1.082l-1.125-.422c-.123-.046-.219-.143-.266-.266l-.422-1.124c-.189-.505-.583-.913-1.082-1.119-.498-.208-1.066-.198-1.556.026l-1.094.497c-.119.054-.255.054-.375 0l-1.093-.496c-.491-.224-1.06-.234-1.557-.026-.497.204-.891.613-1.08 1.117l-.422 1.125c-.047.123-.143.219-.266.266l-1.124.422c-.505.189-.914.583-1.12 1.081s-.196 1.066.026 1.556l.497 1.094c.054.119.054.256 0 .375l-.496 1.094c-.223.491-.233 1.059-.027 1.557s.614.893 1.119 1.082l1.125.422c.123.046.219.143.266.266l.422 1.124c.189.505.583.913 1.082 1.119.239.099.493.148.748.148.276 0 .553-.058.809-.174l1.094-.497c.119-.054.255-.054.375 0l1.093.496c.491.224 1.06.232 1.557.026.498-.206.893-.614 1.082-1.119l.422-1.125c.046-.123.143-.219.266-.266l1.124-.422c.505-.189.913-.583 1.119-1.082.207-.498.197-1.065-.026-1.556zm-5.078 2.312c.414 0 .75.336.75.75s-.336.75-.75.75h-2.5c-.414 0-.75-.336-.75-.75v-1.375c0-1.172.897-2.125 2-2.125.271 0 .5-.286.5-.625s-.229-.625-.5-.625h-1.25c-.414 0-.75-.336-.75-.75s.336-.75.75-.75h1.25c1.103 0 2 .953 2 2.125s-.897 2.125-2 2.125c-.271 0-.5.286-.5.625v.625z"/></g><g><path d="m17 13.9v9.35c0 .29-.16.55-.42.67-.1.05-.22.08-.33.08-.16 0-.32-.05-.46-.15l-3.79-2.91-3.79 2.91c-.23.17-.54.2-.79.07-.26-.12-.42-.38-.42-.67v-9.35c.38.59.93 1.06 1.59 1.34.42.17.86.26 1.32.26.49 0 .99-.11 1.43-.31l.66-.3.66.3c.44.2.94.31 1.43.31.46 0 .9-.09 1.32-.26.66-.28 1.21-.75 1.59-1.34z"/></g></svg>